<svg xmlns="http://www.w3.org/2000/svg" x="0px" y="0px"
width="80" height="80"
viewBox="0 0 224 224"
style=" fill:#000000;"><g fill="none" fill-rule="nonzero" stroke="none" stroke-width="1" stroke-linecap="none" stroke-linejoin="miter" stroke-miterlimit="10" stroke-dasharray="" stroke-dashoffset="0" font-family="none" font-weight="none" font-size="none" text-anchor="none" style="mix-blend-mode: normal"><path d="M0,224v-224h224v224z" fill="none" stroke="none" stroke-linecap="butt"></path><path d="M0,112c0,-61.85589 50.14411,-112 112,-112c61.85589,0 112,50.14411 112,112c0,61.85589 -50.14411,112 -112,112c-61.85589,0 -112,-50.14411 -112,-112zM112,219.52c59.38166,0 107.52,-48.13834 107.52,-107.52c0,-59.38166 -48.13834,-107.52 -107.52,-107.52c-59.38166,0 -107.52,48.13834 -107.52,107.52c0,59.38166 48.13834,107.52 107.52,107.52z" fill="#ffffff" stroke="none" stroke-linecap="butt"></path><g><g id="surface1"><path d="M40.86761,170.20244c4.33996,-10.95693 9.61407,-26.62358 14.71303,-41.80369c5.54658,-16.50351 11.26831,-33.51302 15.91966,-44.91756c20.18176,15.16065 25.31965,43.69147 11.24885,65.0604c-8.95237,13.56479 -24.01571,21.68031 -40.30514,21.68031c0,0 -1.05093,0 -1.5764,-0.01946z" fill="#98ccfd" stroke="none" stroke-linecap="butt"></path><path d="M72.57069,87.52922c16.97059,14.81034 20.824,40.3246 8.09606,59.63059c-8.09606,12.29978 -21.50516,19.87038 -36.14035,20.51261c4.00911,-10.52877 8.60207,-24.17141 13.4091,-38.45628c5.04057,-15.02442 10.23684,-30.49645 14.63518,-41.68692M70.41045,79.64724c-9.47784,22.01116 -23.76271,70.29559 -33.14324,92.7933c1.73209,0.17515 3.44472,0.27246 5.17681,0.27246c16.48404,0 32.63724,-8.01821 42.38754,-22.80909c15.41365,-23.37348 8.95237,-54.84302 -14.4211,-70.25667z" fill="#4788c7" stroke="none" stroke-linecap="butt"></path><path d="M101.35452,193.77054c-1.86832,-9.04969 -4.78757,-20.49315 -7.68736,-31.68362l-0.48655,-1.8294l-1.88778,-0.03892c-41.99831,-0.60331 -71.46329,-48.8099 -71.46329,-74.69394c0,-21.97224 17.88529,-39.85752 39.85752,-39.85752c23.29563,0 38.59252,17.41821 52.09892,32.8124c10.35361,11.79378 19.30599,21.9917 30.10722,21.9917c8.11552,0 17.43767,-1.98509 17.43767,-17.43767v-2.27702l-2.25756,-0.33085c-12.92256,-1.1677 -22.6534,-11.81324 -22.6534,-24.79418v-0.506c0,-2.64679 -0.01946,-7.59006 1.47909,-9.08861c0.19462,-0.19462 0.44762,-0.36977 1.01201,-0.36977c5.70227,0 7.35652,1.34285 8.97183,2.62733c1.30393,1.05093 2.93872,2.35486 5.97474,2.35486c10.50931,0 13.6621,3.26956 15.25796,6.13043l2.17971,3.89234l2.17971,-3.89234c1.59586,-2.86087 4.74865,-6.13043 15.25796,-6.13043c3.03602,0 4.6708,-1.30393 5.97474,-2.35486c1.61532,-1.28447 3.26956,-2.62733 8.97183,-2.62733c0.56439,0 0.81739,0.17515 1.01201,0.36977c1.49855,1.49855 1.47909,6.44182 1.47909,9.08861v0.506c0,12.98094 -9.73084,23.64594 -22.63394,24.79418l-2.27702,0.21407v17.34036c0,33.70763 -19.01406,55.3101 -53.53909,60.83722l-1.75155,0.29192l-0.31139,1.75155c-2.35486,13.64264 -10.60662,25.70888 -22.30309,32.9097z" fill="#b6dcfe" stroke="none" stroke-linecap="butt"></path><path d="M137.70894,47.73008h0.03893h-0.03893M59.68706,48.15824c22.16686,0 37.0745,16.97059 50.21114,31.95608c10.78177,12.26086 20.06499,22.84801 31.995,22.84801c4.9238,0 19.92876,0 19.92876,-20.04553v-4.55404l-4.53457,-0.40869c-11.61862,-1.05093 -20.37638,-10.64554 -20.37638,-22.32255v-0.506c0,-1.53747 -0.01946,-5.39089 0.58385,-6.96728c4.33995,0.07785 5.48819,1.01201 6.83105,2.06294c1.44017,1.1677 3.61988,2.91925 7.53167,2.91925c9.20537,0 11.8327,2.5884 13.07825,4.84596l4.35942,7.80414l4.33996,-7.80414c1.26501,-2.25756 3.89234,-4.84596 13.09771,-4.84596c3.9118,0 6.09151,-1.75155 7.55113,-2.91925c1.32339,-1.05093 2.47163,-1.98509 6.81159,-2.06294c0.60331,1.57639 0.58385,5.42981 0.58385,6.96728v0.506c0,11.67701 -8.75775,21.27162 -20.37638,22.32255l-4.53457,0.52547v19.5006c0,32.34532 -18.25505,53.07201 -51.43723,58.38504l-3.5031,0.56439l-0.60331,3.5031c-2.04348,11.75486 -8.67991,22.28363 -18.19667,29.21199c-1.86832,-8.40745 -4.4178,-18.41075 -6.94782,-28.18051l-0.97309,-3.6588l-3.77556,-0.05839c-40.55814,-0.58385 -69.01112,-47.21404 -69.01112,-72.2223c0,-20.60992 16.75651,-37.36643 37.36643,-37.36643M201.67949,43.17605c-11.11262,0 -9.65299,4.98219 -14.94657,4.98219c-9.28322,0 -14.65464,2.41325 -17.43767,7.39544c-2.78302,-4.98219 -8.15445,-7.39544 -17.43767,-7.39544c-5.29358,0 -3.83395,-4.98219 -14.94657,-4.98219c-5.19627,0 -4.98219,7.97929 -4.98219,12.45548c0,14.30434 10.93747,26.02027 24.91095,27.28528c0,0.07785 0,0.07785 0,0.11677c0,13.48694 -7.47329,14.94657 -14.94657,14.94657c-22.82855,0 -39.85752,-54.80409 -82.20614,-54.80409c-23.39294,0 -42.34862,18.95568 -42.34862,42.34862c0,28.25836 31.15815,76.58172 73.91547,77.18503c3.46418,13.35071 6.61697,25.86457 8.3296,34.91425c13.77887,-7.1619 23.80163,-20.51261 26.54573,-36.33496c38.55359,-6.16935 55.62148,-31.58631 55.62148,-63.30885c0,-3.09441 0,-9.18591 0,-14.94657c0,-0.03892 0,-0.07785 0,-0.11677c13.97349,-1.26501 24.91095,-12.98094 24.91095,-27.28528c0,-4.47618 0.19462,-12.45548 -4.98219,-12.45548z" fill="#4788c7" stroke="none" stroke-linecap="butt"></path><path d="M74.63363,115.41781c-18.91675,0 -38.78713,-12.78632 -52.06,-31.37223c-0.77847,-1.08985 -1.51801,-2.17971 -2.21863,-3.30848" fill="#b6dcfe" stroke="#4788c7" stroke-linecap="round"></path><path d="M87.08911,90.50686c0,4.12588 -3.34741,7.47329 -7.47329,7.47329c-4.12588,0 -7.47329,-3.34741 -7.47329,-7.47329c0,-4.12588 3.34741,-7.47329 7.47329,-7.47329c4.12588,0 7.47329,3.34741 7.47329,7.47329z" fill="#4788c7" stroke="none" stroke-linecap="butt"></path><path d="M129.43773,125.38219c-2.68571,2.29648 -7.49275,6.14989 -9.18591,7.47329c2.76356,6.14989 4.22318,12.86417 4.20372,19.81199c-0.01946,16.9122 -8.79668,32.38424 -23.10102,41.10307c-2.39378,-11.54078 -6.59751,-27.49936 -10.665,-42.97139c-0.46708,-1.79047 -0.93416,-3.58095 -1.40124,-5.35196" fill="#b6dcfe" stroke="#4788c7" stroke-linecap="round"></path></g></g><path d="M112,224c-61.85589,0 -112,-50.14411 -112,-112v0c0,-61.85589 50.14411,-112 112,-112v0c61.85589,0 112,50.14411 112,112v0c0,61.85589 -50.14411,112 -112,112z" fill="none" stroke="none" stroke-linecap="butt"></path><path d="M112,219.52c-59.38166,0 -107.52,-48.13834 -107.52,-107.52v0c0,-59.38166 48.13834,-107.52 107.52,-107.52h0c59.38166,0 107.52,48.13834 107.52,107.52v0c0,59.38166 -48.13834,107.52 -107.52,107.52z" fill="none" stroke="none" stroke-linecap="butt"></path><path d="M112,224c-61.85589,0 -112,-50.14411 -112,-112v0c0,-61.85589 50.14411,-112 112,-112v0c61.85589,0 112,50.14411 112,112v0c0,61.85589 -50.14411,112 -112,112z" fill="none" stroke="none" stroke-linecap="butt"></path><path d="M112,219.52c-59.38166,0 -107.52,-48.13834 -107.52,-107.52v0c0,-59.38166 48.13834,-107.52 107.52,-107.52h0c59.38166,0 107.52,48.13834 107.52,107.52v0c0,59.38166 -48.13834,107.52 -107.52,107.52z" fill="none" stroke="none" stroke-linecap="butt"></path><path d="M112,224c-61.85589,0 -112,-50.14411 -112,-112v0c0,-61.85589 50.14411,-112 112,-112v0c61.85589,0 112,50.14411 112,112v0c0,61.85589 -50.14411,112 -112,112z" fill="none" stroke="none" stroke-linecap="butt"></path><path d="M112,219.52c-59.38166,0 -107.52,-48.13834 -107.52,-107.52v0c0,-59.38166 48.13834,-107.52 107.52,-107.52h0c59.38166,0 107.52,48.13834 107.52,107.52v0c0,59.38166 -48.13834,107.52 -107.52,107.52z" fill="none" stroke="none" stroke-linecap="butt"></path><path d="M112,224c-61.85589,0 -112,-50.14411 -112,-112v0c0,-61.85589 50.14411,-112 112,-112v0c61.85589,0 112,50.14411 112,112v0c0,61.85589 -50.14411,112 -112,112z" fill="none" stroke="none" stroke-linecap="butt"></path><path d="M112,219.52c-59.38166,0 -107.52,-48.13834 -107.52,-107.52v0c0,-59.38166 48.13834,-107.52 107.52,-107.52h0c59.38166,0 107.52,48.13834 107.52,107.52v0c0,59.38166 -48.13834,107.52 -107.52,107.52z" fill="none" stroke="none" stroke-linecap="butt"></path><path d="M112,224c-61.85589,0 -112,-50.14411 -112,-112v0c0,-61.85589 50.14411,-112 112,-112v0c61.85589,0 112,50.14411 112,112v0c0,61.85589 -50.14411,112 -112,112z" fill="none" stroke="none" stroke-linecap="butt"></path><path d="M112,219.52c-59.38166,0 -107.52,-48.13834 -107.52,-107.52v0c0,-59.38166 48.13834,-107.52 107.52,-107.52h0c59.38166,0 107.52,48.13834 107.52,107.52v0c0,59.38166 -48.13834,107.52 -107.52,107.52z" fill="none" stroke="none" stroke-linecap="butt"></path><path d="M112,224c-61.85589,0 -112,-50.14411 -112,-112v0c0,-61.85589 50.14411,-112 112,-112v0c61.85589,0 112,50.14411 112,112v0c0,61.85589 -50.14411,112 -112,112z" fill="none" stroke="none" stroke-linecap="butt"></path><path d="M112,219.52c-59.38166,0 -107.52,-48.13834 -107.52,-107.52v0c0,-59.38166 48.13834,-107.52 107.52,-107.52h0c59.38166,0 107.52,48.13834 107.52,107.52v0c0,59.38166 -48.13834,107.52 -107.52,107.52z" fill="none" stroke="none" stroke-linecap="butt"></path><path d="M112,224c-61.85589,0 -112,-50.14411 -112,-112v0c0,-61.85589 50.14411,-112 112,-112v0c61.85589,0 112,50.14411 112,112v0c0,61.85589 -50.14411,112 -112,112z" fill="none" stroke="none" stroke-linecap="butt"></path><path d="M112,219.52c-59.38166,0 -107.52,-48.13834 -107.52,-107.52v0c0,-59.38166 48.13834,-107.52 107.52,-107.52h0c59.38166,0 107.52,48.13834 107.52,107.52v0c0,59.38166 -48.13834,107.52 -107.52,107.52z" fill="none" stroke="none" stroke-linecap="butt"></path><path d="M112,224c-61.85589,0 -112,-50.14411 -112,-112v0c0,-61.85589 50.14411,-112 112,-112v0c61.85589,0 112,50.14411 112,112v0c0,61.85589 -50.14411,112 -112,112z" fill="none" stroke="none" stroke-linecap="butt"></path><path d="M112,219.52c-59.38166,0 -107.52,-48.13834 -107.52,-107.52v0c0,-59.38166 48.13834,-107.52 107.52,-107.52h0c59.38166,0 107.52,48.13834 107.52,107.52v0c0,59.38166 -48.13834,107.52 -107.52,107.52z" fill="none" stroke="none" stroke-linecap="butt"></path><path d="M112,224c-61.85589,0 -112,-50.14411 -112,-112v0c0,-61.85589 50.14411,-112 112,-112v0c61.85589,0 112,50.14411 112,112v0c0,61.85589 -50.14411,112 -112,112z" fill="none" stroke="none" stroke-linecap="butt"></path><path d="M112,219.52c-59.38166,0 -107.52,-48.13834 -107.52,-107.52v0c0,-59.38166 48.13834,-107.52 107.52,-107.52h0c59.38166,0 107.52,48.13834 107.52,107.52v0c0,59.38166 -48.13834,107.52 -107.52,107.52z" fill="none" stroke="none" stroke-linecap="butt"></path><path d="M112,224c-61.85589,0 -112,-50.14411 -112,-112v0c0,-61.85589 50.14411,-112 112,-112v0c61.85589,0 112,50.14411 112,112v0c0,61.85589 -50.14411,112 -112,112z" fill="none" stroke="none" stroke-linecap="butt"></path><path d="M112,219.52c-59.38166,0 -107.52,-48.13834 -107.52,-107.52v0c0,-59.38166 48.13834,-107.52 107.52,-107.52h0c59.38166,0 107.52,48.13834 107.52,107.52v0c0,59.38166 -48.13834,107.52 -107.52,107.52z" fill="none" stroke="none" stroke-linecap="butt"></path><path d="M112,224c-61.85589,0 -112,-50.14411 -112,-112v0c0,-61.85589 50.14411,-112 112,-112v0c61.85589,0 112,50.14411 112,112v0c0,61.85589 -50.14411,112 -112,112z" fill="none" stroke="none" stroke-linecap="butt"></path><path d="M112,219.52c-59.38166,0 -107.52,-48.13834 -107.52,-107.52v0c0,-59.38166 48.13834,-107.52 107.52,-107.52h0c59.38166,0 107.52,48.13834 107.52,107.52v0c0,59.38166 -48.13834,107.52 -107.52,107.52z" fill="none" stroke="none" stroke-linecap="butt"></path><path d="M112,224c-61.85589,0 -112,-50.14411 -112,-112v0c0,-61.85589 50.14411,-112 112,-112v0c61.85589,0 112,50.14411 112,112v0c0,61.85589 -50.14411,112 -112,112z" fill="none" stroke="none" stroke-linecap="butt"></path><path d="M112,219.52c-59.38166,0 -107.52,-48.13834 -107.52,-107.52v0c0,-59.38166 48.13834,-107.52 107.52,-107.52h0c59.38166,0 107.52,48.13834 107.52,107.52v0c0,59.38166 -48.13834,107.52 -107.52,107.52z" fill="none" stroke="none" stroke-linecap="butt"></path><path d="M112,224c-61.85589,0 -112,-50.14411 -112,-112v0c0,-61.85589 50.14411,-112 112,-112v0c61.85589,0 112,50.14411 112,112v0c0,61.85589 -50.14411,112 -112,112z" fill="none" stroke="none" stroke-linecap="butt"></path><path d="M112,219.52c-59.38166,0 -107.52,-48.13834 -107.52,-107.52v0c0,-59.38166 48.13834,-107.52 107.52,-107.52h0c59.38166,0 107.52,48.13834 107.52,107.52v0c0,59.38166 -48.13834,107.52 -107.52,107.52z" fill="none" stroke="none" stroke-linecap="butt"></path><path d="M112,224c-61.85589,0 -112,-50.14411 -112,-112v0c0,-61.85589 50.14411,-112 112,-112v0c61.85589,0 112,50.14411 112,112v0c0,61.85589 -50.14411,112 -112,112z" fill="none" stroke="none" stroke-linecap="butt"></path><path d="M112,219.52c-59.38166,0 -107.52,-48.13834 -107.52,-107.52v0c0,-59.38166 48.13834,-107.52 107.52,-107.52h0c59.38166,0 107.52,48.13834 107.52,107.52v0c0,59.38166 -48.13834,107.52 -107.52,107.52z" fill="none" stroke="none" stroke-linecap="butt"></path></g></svg>